<?xml version="1.0" encoding="UTF-8"?>
<svg version="1.1" viewBox="0 0 800 800" xmlns="http://www.w3.org/2000/svg">
 <g transform="translate(-266.89 -555.68)" style="display:none">
  <rect x="-485.71" y="-488.57" width="1942.9" height="1725.7" rx="2.7777" ry="2.7777" style="color:#000000;display:inline;fill:#fff"/>
 </g>
 <g transform="matrix(1.4204 0 0 1.4204 214.83 91.528)">
  <path d="m55.663 249.11h-3.538v86.034h3.538z" style="fill:#1c2353;stroke-width:1.788"/>
  <path d="m86.274 249.11h-3.538v74.206h3.538z" style="fill:#1c2353;stroke-width:1.788"/>
  <path d="m116.92 249.11h-3.538v74.206h3.538z" style="fill:#1c2353;stroke-width:1.788"/>
  <path d="m147.56 249.11h-3.5355v74.206h3.5355z" style="fill:#1c2353;stroke-width:1.788"/>
  <path d="m178.21 249.11h-3.5355v74.206h3.5355z" style="fill:#1c2353;stroke-width:1.788"/>
  <path d="m208.84 249.18h-3.538v86.034h3.538z" style="fill:#1c2353;stroke-width:1.788"/>
  <path d="m65.05 329.41h130.82v-3.5378h-130.82z" style="fill:#1c2353;stroke-width:1.788"/>
  <path d="m57.814 335.13h145.33v-3.538h-145.33z" style="fill:#1c2353;stroke-width:1.788"/>
  <path d="m52.047 340.87h156.8v-3.5378h-156.8z" style="fill:#1c2353;stroke-width:1.788"/>
  <path d="m62.915 294.78h4.8372v28.53h2.8657v-28.53h4.8397v28.53h5.121v-74.211h-22.785v80.307h5.121z" style="fill:#1c2353;stroke-width:1.788"/>
  <path d="m93.555 294.78h4.8397v28.53h2.8632v-28.53h4.8397v28.53h5.1233v-74.211h-22.787v74.211h5.121z" style="fill:#1c2353;stroke-width:1.788"/>
  <path d="m124.21 294.78h4.8372v28.53h2.8657v-28.53h4.8397v28.53h5.1233v-74.211h-22.787v74.211h5.121z" style="fill:#1c2353;stroke-width:1.788"/>
  <path d="m154.86 294.78h4.8372v28.53h2.8657v-28.53h4.8397v28.53h5.121v-74.211h-22.785v74.211h5.121z" style="fill:#1c2353;stroke-width:1.788"/>
  <path d="m185.49 294.78h4.8372v28.53h2.8657v-28.53h4.8397v34.626h5.121v-80.307h-22.785v74.211h5.121z" style="fill:#1c2353;stroke-width:1.788"/>
  <path d="m2.2285 340.87h5.121v-71.978h4.8397v71.978h2.8657v-71.978h4.8397v71.978h5.121v-100.54h-22.787z" style="fill:#1c2353;stroke-width:1.788"/>
  <path d="m27.19 340.87h5.121l-0.0018-57.089h4.8397l0.0018 57.089h2.8657l-0.0018-57.089h4.8397v57.089h5.1233v-71.981h-22.787z" style="fill:#1c2353;stroke-width:1.788"/>
  <path d="m-75.785 268.88 0.0018 71.98h5.1186v-57.089h4.8277v57.089h2.9301v-57.089h4.8277v57.089h5.1067v-57.089h4.8277v57.089h2.9301v-57.089h4.8277v57.089h5.0924v-57.089h4.8277v57.089h2.9301v-57.089h4.8277v57.089h5.1067v-57.089h4.8277v57.089h2.9301v-57.089h4.8277v57.089h5.0924l-0.0018-71.98z" style="fill:#1c2353;stroke-width:1.788"/>
  <path d="m235.95 340.87h5.121v-71.978h4.8397v71.978h2.8657v-71.978h4.8372v71.978h5.1233v-100.54h-22.787z" style="fill:#1c2353;stroke-width:1.788"/>
  <path d="m211 340.87h5.121v-57.089h4.842l-2e-3 57.089h2.8657v-57.089h4.8397l-2e-3 57.089h5.1233v-71.981h-22.787z" style="fill:#1c2353;stroke-width:1.788"/>
  <path d="m260.89 268.88-2e-3 71.98h5.0947v-57.089h4.8254v57.089h2.9324v-57.089h4.8254v57.089h5.109v-57.089h4.8254v57.089h2.9324v-57.089h4.8254v57.089h5.0947v-57.089h4.8254v57.089h2.9324v-57.089h4.8254v57.089h5.109v-57.089h4.8254v57.089h2.9301v-57.089h4.8277v57.089h5.1186l2e-3 -71.98z" style="fill:#1c2353;stroke-width:1.788"/>
  <path d="m-75.785 358.07h412.54v-8.566h-412.54z" style="fill:#16479e;stroke-width:1.788"/>
  <path d="m-75.785 349.44h412.54v-8.566h-412.54z" style="fill:#fff;stroke-width:1.788"/>
  <path d="m-75.785 366.65h412.54v-8.5683h-412.54z" style="fill:#d22a2b;stroke-width:1.788"/>
  <path d="m134.12 68.524-43.983 57.369v-57.369h-10.518v74.367h9.7744l44.085-57.261v57.261h10.416v-74.367zm-110.85 0v74.367h10.521l-0.10966-65.124h28.363l0.10728-9.2428zm-28.97 0-30.594 52.267-31.023-52.267h-8.7112v74.367h10.201v-53.862l26.875 44.831h4.8872l26.877-45.148 0.10728 54.179h10.199l-0.10728-74.367z" style="fill:#1c2353;stroke-width:2.384"/>
  <path d="m242.52 142.9-0.10496-74.367h-8.7112l-30.599 52.269-31.018-52.269h-8.7135v74.367h10.199v-53.862l26.88 44.831h4.8848l26.88-45.151 0.10496 54.181z" style="fill:#1c2353;stroke-width:2.384"/>
  <path d="m-55.954 168.89-8.7517 16.595-8.5419-16.595h-2.7678l9.9437 18.869-0.7009 1.192c-1.0275 1.7499-2.3435 2.6248-3.9551 2.6248-0.7009 0-1.4709-0.16218-2.3125-0.48873l-0.73427 2.1003c1.0752 0.44342 2.0765 0.66514 3.011 0.66514 1.2588 0 2.4221-0.35759 3.4854-1.068 1.0585-0.7128 1.9883-1.8023 2.7821-3.2756l11.131-20.619zm38.614 0v10.921h-15.334v-10.921h-2.5914v24.508h2.5914v-11.307h15.334v11.307h2.5557v-24.508zm24.889 24.508h2.3482l15.682-20.271v20.271h2.558v-24.508h-2.3459l-15.687 20.305v-20.305h-2.5557zm57.45-12.638c1.2611-0.46965 2.241-1.1753 2.9419-2.1194 0.69851-0.94645 1.049-2.1051 1.049-3.483 0-2.0312-0.73428-3.5832-2.2076-4.6584-1.4662-1.0728-3.5093-1.6092-6.1245-1.6092h-10.187v24.508h10.852c2.918 0 5.128-0.57216 6.6347-1.7165 1.5067-1.1419 2.2577-2.7774 2.2577-4.9015 0-1.633-0.44342-2.9562-1.3303-3.9718-0.88685-1.0156-2.1814-1.6998-3.8859-2.0478m-11.975-9.8054h7.4953c1.8881 0 3.3424 0.38622 4.358 1.1563 1.0132 0.76765 1.521 1.8905 1.521 3.3614 0 1.4709-0.50779 2.589-1.521 3.3591-1.0156 0.77242-2.4698 1.1562-4.358 1.1562h-7.4953zm8.2987 20.376h-8.2987v-9.3477h8.2987c4.2245 0 6.3367 1.5425 6.3367 4.6226 0 3.1516-2.1122 4.7251-6.3367 4.7251m32.031-0.17397v-9.1045h12.673v-2.2052h-12.673v-8.7159h14.213v-2.241h-16.805v24.508h17.329v-2.241zm43.725-22.267h-9.1713v24.508h2.589v-7.7385h6.5822c3.1278 0 5.5786-0.74143 7.3547-2.2219 1.7713-1.4828 2.6582-3.5307 2.6582-6.1436 0-2.6152-0.88686-4.6679-2.6582-6.1626-1.7761-1.4948-4.2268-2.241-7.3547-2.241m-0.0715 14.495h-6.5107v-12.254h6.5107c2.4293 0 4.2817 0.52924 5.5666 1.5925 1.285 1.0633 1.9287 2.5843 1.9287 4.5701 0 1.9358-0.64368 3.4353-1.9287 4.4986-1.285 1.0609-3.1373 1.5925-5.5666 1.5925m40.538 10.22c1.8238 0 3.5069-0.30755 5.0612-0.92499 1.5544-0.61747 2.8656-1.5115 3.9384-2.6796l-1.645-1.6426c-1.8905 1.9573-4.3055 2.9371-7.2474 2.9371-1.9358 0-3.7-0.44341-5.2877-1.3279-1.5878-0.88685-2.8274-2.1027-3.7286-3.6404-0.89878-1.5424-1.347-3.2708-1.347-5.1828 0-1.9144 0.4482-3.6428 1.347-5.1804 0.90116-1.5425 2.1408-2.7559 3.7286-3.6428 1.5878-0.88685 3.3519-1.3303 5.2877-1.3303 2.918 0 5.333 0.97031 7.2474 2.9037l1.645-1.645c-1.0728-1.1658-2.3792-2.0526-3.9193-2.6606-1.5424-0.60552-3.2208-0.90829-5.0446-0.90829-2.4245 0-4.6202 0.53639-6.5822 1.6092-1.9596 1.0752-3.4926 2.5628-4.6011 4.4629-1.111 1.9024-1.664 4.0338-1.664 6.3915 0 2.3554 0.55308 4.4867 1.664 6.3891 1.1086 1.9024 2.6367 3.3901 4.5844 4.4629 1.9501 1.0752 4.1386 1.6092 6.5632 1.6092m28.429-0.20741h2.3459l15.682-20.271v20.271h2.558v-24.508h-2.3459l-15.687 20.305v-20.305h-2.5533zm58.952-24.508h-19.778v2.241h8.611v22.267h2.5533v-22.267h8.6134zm21.215 22.267v-9.1045h12.673v-2.2052h-12.673v-8.7159h14.213v-2.241h-16.805v24.508h17.332v-2.241zm50.586-22.267h-19.78v2.241h8.611v22.267h2.558v-22.267h8.611z" style="fill:#1c2353;stroke-width:2.384"/>
  <path d="m336.74 105.67c0-21.857-16.764-37.984-39.362-37.984-22.813 0-39.577 16.233-39.577 37.984 0 21.749 16.764 37.984 39.577 37.984 22.598 0 39.362-16.128 39.362-37.984m-39.362 28.544c-16.657 0-28.966-12.099-28.966-28.544 0-16.447 12.309-28.544 28.966-28.544 16.445 0 28.754 12.096 28.754 28.544 0 16.445-12.309 28.544-28.754 28.544" style="fill:#1c2353;stroke-width:2.384"/>
 </g>
</svg>
